<?xml version="1.0" encoding="UTF-8"?>
<svg version="1.1" xmlns="http://www.w3.org/2000/svg" width="513" height="215">
<path d="M0 0 C0.59941406 0.45632812 1.19882813 0.91265625 1.81640625 1.3828125 C18.54297509 14.34493313 27.22271179 36.32528563 30.25 56.5625 C34.00031318 89.00940601 23.72391936 120.2835261 3.6875 145.6875 C-18.40346002 171.49904276 -47.61263282 189.54462603 -82.06689453 192.66064453 C-107.01594658 194.44723334 -132.36001711 188.60758472 -151.671875 172.109375 C-152.44015625 171.41328125 -153.2084375 170.7171875 -154 170 C-154.83015625 169.26265625 -155.6603125 168.5253125 -156.515625 167.765625 C-171.64109881 153.56809437 -181.90018916 132.6874642 -183.19287109 111.89819336 C-183.84750024 85.01674026 -180.08011157 62.35871044 -166 39 C-162.53058454 39.45822468 -159.32604951 39.89131683 -156 41 C-157.09708161 43.77682378 -158.22770243 46.53215137 -159.40234375 49.27734375 C-168.49092964 70.94656762 -170.1823406 92.61476945 -161.5625 114.6796875 C-153.85569862 131.61241937 -140.17800464 143.26392905 -123 150 C-116.79102259 152.08045267 -110.5432658 153.59026988 -104 154 C-103.22785156 154.05285156 -102.45570312 154.10570312 -101.66015625 154.16015625 C-78.83898851 154.9494598 -57.10693684 145.71075242 -40 131 C-39.37609375 130.50886719 -38.7521875 130.01773438 -38.109375 129.51171875 C-21.13130975 115.93691432 -10.55166251 93.29900115 -8 72 C-6.34994486 52.27982887 -10.9325444 32.55361905 -23.77612305 17.07348633 C-34.79340926 4.73213169 -50.75646972 -3.96037859 -67.42504883 -5.17700195 C-84.39864677 -5.5877987 -98.09566909 -4.03029681 -113.7421875 3.046875 C-116 4 -116 4 -118 4 C-119.61989062 0.45648927 -120.10414268 -2.12719419 -120 -6 C-81.15128251 -25.26708897 -35.01495003 -30.5193597 0 0 Z " fill="#FFFFFF" transform="translate(183,22)"/>
<path d="M0 0 C11.99967926 10.2877685 19.77701495 24.27763877 21.28540039 40.11816406 C22.30171745 61.25229066 17.316531 81.09078239 3.25 97.41015625 C2.528125 98.19132812 1.80625 98.9725 1.0625 99.77734375 C0.216875 100.70289063 -0.62875 101.6284375 -1.5 102.58203125 C-7.42299999 108.79108521 -13.44763486 113.60535746 -20.9375 117.77734375 C-21.73671875 118.23753906 -22.5359375 118.69773438 -23.359375 119.171875 C-40.21664075 128.28912167 -59.80325836 130.33730064 -78.1171875 125.0234375 C-92.46594193 120.50147079 -103.95462741 111.56904915 -111.54296875 98.515625 C-120.36214428 81.19842038 -120.42224581 62.66281189 -115.1171875 44.25 C-110.86839431 31.7427909 -110.86839431 31.7427909 -106.9375 29.77734375 C-104.9921875 30.3359375 -104.9921875 30.3359375 -102.8125 31.21484375 C-101.72582031 31.64603516 -101.72582031 31.64603516 -100.6171875 32.0859375 C-100.06289062 32.31410156 -99.50859375 32.54226562 -98.9375 32.77734375 C-99.23785156 33.85371094 -99.53820312 34.93007812 -99.84765625 36.0390625 C-103.28219505 48.95572118 -104.48965021 60.53406307 -97.9375 72.77734375 C-93.24494096 80.77472333 -86.03570365 86.32519027 -77.21484375 89.2421875 C-64.2284931 92.29386853 -52.03023537 90.34124558 -40.56640625 83.56640625 C-28.02120101 75.02895603 -19.86477193 64.11091613 -16.3515625 49.30859375 C-14.50033897 37.99168011 -16.35434077 27.89956578 -22.8515625 18.46875 C-23.9375 16.77734375 -23.9375 16.77734375 -24.9375 13.77734375 C-26.79659535 12.69127811 -26.79659535 12.69127811 -28.9375 11.77734375 C-30.15189591 10.97393335 -31.36008068 10.16107056 -32.5625 9.33984375 C-41.78443176 3.58889738 -51.76053351 2.35502921 -62.3671875 4.45703125 C-65.24662223 5.16842101 -68.09521131 5.93070457 -70.9375 6.77734375 C-71.9275 3.47734375 -72.9175 0.17734375 -73.9375 -3.22265625 C-51.13327487 -15.99302232 -21.21090375 -16.04920776 0 0 Z " fill="#FFFFFF" transform="translate(141.9375,36.22265625)"/>
<path d="M0 0 C17 0 17 0 22.125 4.25 C23.31665562 5.8280286 24.50355861 7.41105902 25.62597656 9.0390625 C27.21130256 11.30156044 28.89078059 13.47487161 30.5859375 15.65625 C38.18054892 25.50820661 45.07989572 35.61984358 52 46 C52.33 30.82 52.66 15.64 53 0 C59.6 0 66.2 0 73 0 C73 27.72 73 55.44 73 84 C67.06 84 61.12 84 55 84 C51.32034718 80.28939683 50.0752449 78.59844614 48.125 74.0625 C47.09632847 72.03055825 46.06107384 70.00193689 45.01953125 67.9765625 C44.27243896 66.45724121 44.27243896 66.45724121 43.51025391 64.90722656 C41.29825223 60.64914122 38.63492547 56.80863322 35.8125 52.9375 C35.15435303 52.01432983 35.15435303 52.01432983 34.48291016 51.07250977 C29.81504837 44.59353123 24.86925112 38.33002646 20 32 C19.67 49.16 19.34 66.32 19 84 C12.73 84 6.46 84 0 84 C0 56.28 0 28.56 0 0 Z " fill="#FFFFFF" transform="translate(342,42)"/>
<path d="M0 0 C9.41954204 6.83777387 14.95696065 16.12406617 17.4140625 27.45703125 C18.55738143 42.20505693 18.10968193 56.05529084 9.16796875 68.42578125 C1.31190188 77.5241215 -8.95229931 81.81241445 -20.77734375 82.6953125 C-34.13986873 82.98950482 -45.68483129 79.88689852 -55.55078125 70.609375 C-64.97484208 60.58759361 -67.0681231 48.36016421 -66.8359375 34.98046875 C-66.01439863 23.40190525 -62.16916894 11.96066457 -53.4609375 3.984375 C-38.77755257 -7.97646564 -16.4735045 -9.82935691 0 0 Z M-40.5859375 18.45703125 C-46.06754238 27.60538534 -46.6585927 37.00158991 -45.5859375 47.45703125 C-43.69478391 54.40256842 -39.63378 59.57322718 -33.5859375 63.45703125 C-27.52706741 65.47665461 -20.1437022 65.54411197 -14.2109375 63.01953125 C-8.94722633 59.90516881 -5.77654981 54.83424887 -3.7734375 49.15234375 C-1.41237435 39.67529862 -1.86407078 29.67762452 -6.8984375 21.14453125 C-10.48092327 15.87555364 -14.33454224 12.95736611 -20.5859375 11.45703125 C-28.18474725 10.75343775 -35.20765251 12.92934945 -40.5859375 18.45703125 Z " fill="#FFFFFF" transform="translate(495.5859375,45.54296875)"/>
<path d="M0 0 C6.6 0 13.2 0 20 0 C20.0093457 1.6492749 20.01869141 3.2985498 20.02832031 4.99780273 C20.06832483 11.14260427 20.13411413 17.28691067 20.20751953 23.43139648 C20.237848 26.08614811 20.25691139 28.74029755 20.27099609 31.39526367 C20.29250897 35.22097004 20.339206 39.04568641 20.390625 42.87109375 C20.39185364 44.04957382 20.39308228 45.22805389 20.39434814 46.44224548 C20.51396465 53.2392792 21.08944297 59.24353096 25 65 C29.58066109 68.05377406 33.54169092 68.48972161 38.8515625 67.62890625 C42.69080074 66.50505651 44.33774258 65.05185606 47 62 C49.27863143 55.17685741 49.34163583 48.55344265 49.4140625 41.40625 C49.43342865 40.21898315 49.4527948 39.03171631 49.4727478 37.80847168 C49.53223652 34.03905281 49.57880624 30.2696029 49.625 26.5 C49.663208 23.93488296 49.70226136 21.36977837 49.7421875 18.8046875 C49.83791292 12.53656012 49.92205723 6.26837271 50 0 C56.6 0 63.2 0 70 0 C70.0497434 7.47069346 70.08588145 14.94128872 70.10986328 22.41210938 C70.11986976 24.94923585 70.13347911 27.48635095 70.15087891 30.0234375 C70.17536379 33.68752873 70.18653701 37.35146638 70.1953125 41.015625 C70.20563507 42.13487366 70.21595764 43.25412231 70.22659302 44.4072876 C70.22815354 55.56623626 69.90721415 67.55682559 62.01953125 76.16015625 C53.03300857 84.68265882 43.52174603 86.32953649 31.390625 86.21875 C21.53377498 85.58282419 14.09841444 82.45915235 7.3125 75.25 C1.35546241 68.17519598 -0.13378602 60.20370945 -0.11352539 51.08642578 C-0.11344986 49.94569611 -0.11337433 48.80496643 -0.11329651 47.62966919 C-0.10555458 45.80591263 -0.10555458 45.80591263 -0.09765625 43.9453125 C-0.0962413 42.68862762 -0.09482635 41.43194275 -0.09336853 40.13717651 C-0.08873074 36.8130806 -0.0797618 33.48905458 -0.06866455 30.16497803 C-0.05839401 26.76624146 -0.05385887 23.36749765 -0.04882812 19.96875 C-0.03781699 13.31247834 -0.02056155 6.65624873 0 0 Z " fill="#FFFFFF" transform="translate(255,42)"/>
<path d="M0 0 C3.18798834 3.09843811 3.61805729 6.19703147 3.765625 10.4140625 C3.55868703 14.65054269 3.13940035 17.56724781 0.265625 20.8515625 C-1.0546875 21.86869213 -2.38648153 22.87127634 -3.734375 23.8515625 C-3.02861328 24.81255859 -3.02861328 24.81255859 -2.30859375 25.79296875 C1.2060453 30.67562466 4.17790298 35.20243232 6.265625 40.8515625 C2.75646493 41.48702408 -0.24816199 41.69008312 -3.734375 40.8515625 C-7.47579928 37.22748916 -9.82962492 32.7550278 -12.05078125 28.08203125 C-13.88572218 25.11897194 -13.88572218 25.11897194 -19.734375 24.8515625 C-19.734375 30.1315625 -19.734375 35.4115625 -19.734375 40.8515625 C-22.704375 40.8515625 -25.674375 40.8515625 -28.734375 40.8515625 C-28.734375 26.3315625 -28.734375 11.8115625 -28.734375 -3.1484375 C-19.08615651 -4.75647392 -8.5739391 -5.67733805 0 0 Z M-19.734375 3.8515625 C-19.734375 8.1415625 -19.734375 12.4315625 -19.734375 16.8515625 C-13.06498286 17.4349565 -13.06498286 17.4349565 -7.046875 15.2265625 C-5.49666994 12.85689357 -5.49666994 12.85689357 -5.671875 9.7890625 C-6.50715893 6.76490719 -6.50715893 6.76490719 -8.796875 4.9765625 C-12.67301143 3.49208472 -15.5992481 3.64130181 -19.734375 3.8515625 Z " fill="#E85A25" transform="translate(393.734375,152.1484375)"/>
<path d="M0 0 C2.98762875 2.33180781 3.80328833 3.40986499 5 7 C6.13452136 17.32414436 6.13452136 17.32414436 3 21.5 C-3.91973401 27.26644501 -10.19064006 27.330351 -19 27 C-19 31.95 -19 36.9 -19 42 C-21.97 42 -24.94 42 -28 42 C-28 27.48 -28 12.96 -28 -2 C-18.16453534 -3.40506638 -9.29444507 -4.07711717 0 0 Z M-19 5 C-19 9.62 -19 14.24 -19 19 C-11.97750176 19.64796146 -11.97750176 19.64796146 -5.8125 16.875 C-3.75566501 14.12404523 -3.75566501 14.12404523 -3.8125 10.875 C-4.78363852 7.81701681 -4.78363852 7.81701681 -7.5625 6.125 C-11.68216729 4.77674525 -14.69009564 4.77707391 -19 5 Z " fill="#E95B28" transform="translate(477,151)"/>
<path d="M0 0 C9.57 0 19.14 0 29 0 C29 2.31 29 4.62 29 7 C22.4 7 15.8 7 9 7 C9 10.3 9 13.6 9 17 C14.94 17 20.88 17 27 17 C27 19.64 27 22.28 27 25 C21.06 25 15.12 25 9 25 C9 28.96 9 32.92 9 37 C15.93 37 22.86 37 30 37 C30 39.31 30 41.62 30 44 C20.1 44 10.2 44 0 44 C0 29.48 0 14.96 0 0 Z " fill="#E25B29" transform="translate(284,149)"/>
<path d="M0 0 C1.78125 2.109375 1.78125 2.109375 3 4 C2.01 4 1.02 4 0 4 C-0.391875 3.54625 -0.78375 3.0925 -1.1875 2.625 C-4.92512929 -0.72597798 -10.12038563 -0.9581136 -14.9375 -1.1875 C-17.87366685 -1.34719111 -17.87366685 -1.34719111 -19 0 C-20.98 0 -22.96 0 -25 0 C-25 13.2 -25 26.4 -25 40 C-23.02 40 -21.04 40 -19 40 C-19 35.71 -19 31.42 -19 27 C-18.67 27 -18.34 27 -18 27 C-18 31.95 -18 36.9 -18 42 C-20.97 42 -23.94 42 -27 42 C-27 27.48 -27 12.96 -27 -2 C-17.89483635 -3.51752728 -8.529591 -4.2647955 0 0 Z " fill="#D06139" transform="translate(392,151)"/>
<path d="M0 0 C2.31 0 4.62 0 7 0 C7 0.66 7 1.32 7 2 C5.35 2 3.7 2 2 2 C2 15.2 2 28.4 2 42 C3.98 42 5.96 42 8 42 C8 37.71 8 33.42 8 29 C8.33 29 8.66 29 9 29 C9 33.95 9 38.9 9 44 C6.03 44 3.06 44 0 44 C0 29.48 0 14.96 0 0 Z " fill="#CE643B" transform="translate(449,149)"/>
<path d="M0 0 C4.31385796 3.54352618 5.9721398 7.95192247 8 13 C6.3973218 13.10824843 4.79254252 13.18570645 3.1875 13.25 C2.29417969 13.29640625 1.40085937 13.3428125 0.48046875 13.390625 C-2 13 -2 13 -3.82421875 11.109375 C-5 9 -5 9 -5 7 C-3.68 7.33 -2.36 7.66 -1 8 C-0.67 5.36 -0.34 2.72 0 0 Z " fill="#DA5F32" transform="translate(392,180)"/>
<path d="M0 0 C1.7290774 -0.02725341 3.45828176 -0.04650987 5.1875 -0.0625 C6.15042969 -0.07410156 7.11335938 -0.08570313 8.10546875 -0.09765625 C10.85576513 -0.00486622 13.32479591 0.37888315 16 1 C16 1.33 16 1.66 16 2 C14.0085944 2.38133299 12.00720923 2.71325582 10 3 C9.67 2.67 9.34 2.34 9 2 C7.48530552 1.76807135 5.96245438 1.58784762 4.4375 1.4375 C3.61121094 1.35371094 2.78492188 1.26992187 1.93359375 1.18359375 C1.29550781 1.12300781 0.65742188 1.06242188 0 1 C0 0.67 0 0.34 0 0 Z " fill="#CF643A" transform="translate(456,148)"/>
</svg>
