<?xml version="1.0" encoding="UTF-8"?>
<svg version="1.1" xmlns="http://www.w3.org/2000/svg" width="335" height="150">
<path d="M0 0 C110.55 0 221.1 0 335 0 C335 49.5 335 99 335 150 C224.45 150 113.9 150 0 150 C0 100.5 0 51 0 0 Z " fill="#FDFDFD" transform="translate(0,0)"/>
<path d="M0 0 C10.63114711 7.98129403 17.15465833 17.97217155 20 31 C21.85462596 46.87786916 17.27567155 64.75093382 7.78369141 77.65332031 C1.96788043 84.99706957 -4.70593743 90.58675415 -13 95 C-13.87269531 95.47050781 -14.74539062 95.94101563 -15.64453125 96.42578125 C-31.34844967 104.22025906 -49.33951629 105.32758971 -66 100 C-78.77901267 94.46195084 -88.25780755 87.0145679 -94.2578125 74.34375 C-98.86857501 62.0913741 -99.39426514 46.01675731 -94.875 33.6875 C-93.97429679 31.76361837 -93.01740452 29.86479888 -92 28 C-91.49597656 27.03320312 -90.99195313 26.06640625 -90.47265625 25.0703125 C-86.41106151 17.77391076 -86.41106151 17.77391076 -82 16 C-81.01 17.32 -80.02 18.64 -79 20 C-79.40992187 20.64066406 -79.81984375 21.28132813 -80.2421875 21.94140625 C-80.78101562 22.80636719 -81.31984375 23.67132813 -81.875 24.5625 C-82.40867187 25.40941406 -82.94234375 26.25632813 -83.4921875 27.12890625 C-88.60443257 36.86336254 -88.54414245 49.10785373 -85.375 59.5 C-81.49253035 69.4834934 -75.46011073 75.49480613 -65.796875 80.03515625 C-53.92837012 84.37483065 -39.36586531 83.12221663 -28 78 C-18.19747807 72.61000931 -10.09351259 64.5007497 -6 54 C-5.70222656 53.26394531 -5.40445313 52.52789062 -5.09765625 51.76953125 C-1.57143199 41.80835397 -1.65387931 31.22441471 -5.73828125 21.46484375 C-7.7384023 17.55748654 -10.05264853 14.24780963 -13 11 C-13.48984375 10.45601562 -13.9796875 9.91203125 -14.484375 9.3515625 C-22.18616752 1.8404084 -32.06758153 -0.42789737 -42.5 -0.375 C-47.08408847 -0.31227697 -51.52634014 -0.08290973 -56 1 C-56.495 -1.97 -56.495 -1.97 -57 -5 C-39.30139327 -14.7342337 -16.4546233 -10.68156055 0 0 Z " fill="#1D1D1B" transform="translate(110,28)"/>
<path d="M0 0 C9.54822375 4.15833113 15.4386858 10.1193867 20 19.4375 C23.31555203 29.38415609 21.00930599 41.07415186 17 50.4375 C11.25516526 61.58723844 2.74398554 67.51743862 -9 71.4375 C-19.65673756 74.11854632 -31.27007342 72.97628255 -40.98046875 67.82421875 C-48.80766879 62.44964232 -52.61536169 55.4795581 -54.6875 46.4375 C-55.78538401 35.89781346 -54.05797055 27.71044601 -49 18.4375 C-47.68 18.4375 -46.36 18.4375 -45 18.4375 C-44.34 19.4275 -43.68 20.4175 -43 21.4375 C-43.62148907 23.1215349 -44.29606245 24.78622954 -45 26.4375 C-45.88577965 33.63562515 -45.78661605 40.35485166 -41.7421875 46.55859375 C-37.50250682 51.1309848 -31.82427112 53.62291532 -25.625 54.0625 C-17.79934075 53.53523927 -10.21859072 50.31701536 -4.9375 44.5 C1.04631798 36.75452272 3.0200999 29.12126522 2 19.4375 C0.63582328 14.43292027 -1.01782952 11.23927182 -5.0625 7.9375 C-9.38986028 5.72778411 -12.87650967 5.20843497 -17.6875 4.875 C-18.86699219 4.79121094 -20.04648437 4.70742188 -21.26171875 4.62109375 C-22.61716797 4.53021484 -22.61716797 4.53021484 -24 4.4375 C-24.33 2.7875 -24.66 1.1375 -25 -0.5625 C-18.53480119 -3.79509941 -6.64617818 -2.21224139 0 0 Z " fill="#1D1D1B" transform="translate(80,31.5625)"/>
<path d="M0 0 C5.07749944 5.22683766 6.40845812 8.87766223 6.6875 16.125 C6.45339506 23.99259826 4.291498 28.18338651 -1.3125 33.5 C-7.60823848 37.64597412 -12.26317587 38.74127447 -19.6875 38.6875 C-20.58025635 38.68250488 -21.4730127 38.67750977 -22.39282227 38.67236328 C-30.00281017 38.46995142 -34.88620556 36.99679869 -40.4375 31.6953125 C-45.83982105 25.77117635 -46.33133902 19.99876764 -46.18359375 12.28125 C-45.61630637 6.59401449 -42.5880192 3.73630186 -38.625 0 C-27.09131757 -9.25122738 -12.00560247 -7.56874939 0 0 Z " fill="#1C1C1A" transform="translate(315.875,46.8125)"/>
<path d="M0 0 C12 0 12 0 15.98828125 2.78125 C17.12918686 3.99068243 18.23723023 5.23185673 19.3125 6.5 C19.89789551 7.13695801 20.48329102 7.77391602 21.08642578 8.43017578 C22.75692049 10.2606956 24.38134702 12.12367963 26 14 C26.80566406 14.89460938 27.61132812 15.78921875 28.44140625 16.7109375 C29.99481675 18.44950198 31.51535291 20.20279563 33 22 C34.22784809 20.99440206 34.22784809 20.99440206 34.11352539 18.95874023 C34.10828857 18.08419189 34.10305176 17.20964355 34.09765625 16.30859375 C34.09443359 15.36435547 34.09121094 14.42011719 34.08789062 13.44726562 C34.07951172 12.45404297 34.07113281 11.46082031 34.0625 10.4375 C34.05798828 9.44041016 34.05347656 8.44332031 34.04882812 7.41601562 C34.03700023 4.94398513 34.01906415 2.47198528 34 0 C38.29 0 42.58 0 47 0 C47 14.19 47 28.38 47 43 C34 43 34 43 30.7890625 41.09375 C30.07492188 40.2378125 29.36078125 39.381875 28.625 38.5 C27.8309375 37.58863281 27.036875 36.67726562 26.21875 35.73828125 C25.4865625 34.83464844 24.754375 33.93101563 24 33 C22.71115799 31.55996691 21.41978713 30.12218997 20.125 28.6875 C17.6709606 25.84500712 15.34986878 22.93733597 13 20 C12.67 27.59 12.34 35.18 12 43 C8.04 43 4.08 43 0 43 C0 28.81 0 14.62 0 0 Z " fill="#1D1D1B" transform="translate(209,42)"/>
<path d="M0 0 C4.29 0 8.58 0 13 0 C13.02578125 1.81886719 13.0515625 3.63773438 13.078125 5.51171875 C13.1344062 7.90366982 13.19175353 10.29559598 13.25 12.6875 C13.26417969 13.88568359 13.27835938 15.08386719 13.29296875 16.31835938 C13.32519531 17.47529297 13.35742188 18.63222656 13.390625 19.82421875 C13.41157227 20.88729248 13.43251953 21.95036621 13.45410156 23.0456543 C14.12966676 26.70174306 15.36120416 28.41349557 18 31 C21.72834671 31.39946572 25.49494886 31.48290625 29 30 C30.07955212 26.76134365 30.20441741 24.20844162 30.31640625 20.80078125 C30.35830078 19.59228516 30.40019531 18.38378906 30.44335938 17.13867188 C30.48267578 15.87603516 30.52199219 14.61339844 30.5625 13.3125 C30.60568359 12.03826172 30.64886719 10.76402344 30.69335938 9.45117188 C30.79954789 6.30091273 30.90028813 3.1504708 31 0 C35.29 0 39.58 0 44 0 C44.08111115 4.5211958 44.14056327 9.04092842 44.1875 13.5625 C44.21263672 14.83931641 44.23777344 16.11613281 44.26367188 17.43164062 C44.36989132 31.06313644 44.36989132 31.06313644 39.3515625 36.92578125 C38.78179687 37.38339844 38.21203125 37.84101562 37.625 38.3125 C37.06039062 38.78300781 36.49578125 39.25351563 35.9140625 39.73828125 C29.22362637 44.14850752 21.69602403 43.77842996 14 43 C8.9172841 41.37101402 5.85849527 39.05165671 2.5 34.9375 C0.13257675 30.30129613 -0.12130491 26.68707929 -0.09765625 21.484375 C-0.09443359 20.23398437 -0.09121094 18.98359375 -0.08789062 17.6953125 C-0.07951172 16.39335938 -0.07113281 15.09140625 -0.0625 13.75 C-0.05798828 12.43257812 -0.05347656 11.11515625 -0.04882812 9.7578125 C-0.03704326 6.50518896 -0.0191079 3.25258876 0 0 Z " fill="#191918" transform="translate(148,42)"/>
<path d="M0 0 C10.85899277 3.77534874 18.69973193 10.80543695 24.15234375 20.87890625 C29.23478495 31.43474567 28.35731094 43.27833881 24.59765625 54.16015625 C19.46975803 65.89399394 10.22150225 75.3787123 -1.53125 80.39453125 C-13.30169544 84.58674469 -26.3404144 85.11967155 -38.08203125 80.51953125 C-47.57729457 75.7859044 -53.98721873 68.62040861 -57.60546875 58.63671875 C-60.64772562 46.94133606 -59.6360691 34.7011545 -53.57421875 24.1953125 C-52.6835602 22.82433452 -51.71702891 21.50288754 -50.73046875 20.19921875 C-49.74046875 20.52921875 -48.75046875 20.85921875 -47.73046875 21.19921875 C-48.65859375 22.52953125 -48.65859375 22.52953125 -49.60546875 23.88671875 C-55.40046907 32.9201016 -55.80679446 42.90478383 -53.60546875 53.19921875 C-51.25600376 61.90541378 -46.4923683 67.6958525 -38.73046875 72.19921875 C-28.23735347 77.31781157 -15.45501148 76.14387457 -4.7421875 72.4609375 C5.33316251 68.24000617 11.784281 62.06556975 16.08203125 52.07421875 C19.66837913 43.13736482 21.30831774 32.51945686 18.29296875 23.171875 C17.09045569 20.7188959 15.78485653 18.46999774 14.26953125 16.19921875 C13.71265625 15.29171875 13.15578125 14.38421875 12.58203125 13.44921875 C3.64772025 4.75637562 -6.46041612 3.01837186 -18.5 2.54296875 C-21.73046875 2.19921875 -21.73046875 2.19921875 -23.73046875 0.19921875 C-17.47636891 -2.92783117 -6.6618568 -1.43003209 0 0 Z " fill="#F3F3F2" transform="translate(80.73046875,27.80078125)"/>
<path d="M0 0 C2.67315587 1.78210391 4.15913746 2.89971172 5.625 5.75 C6.15610343 8.8038447 6.24677339 10.75746545 4.5703125 13.43359375 C1.92684411 16.69491421 0.22842988 18.58197591 -3.984375 19.0234375 C-13.50617707 19.33135647 -13.50617707 19.33135647 -17.0625 16.375 C-19.55580194 13.54476537 -20.27757148 12.62685668 -20.6875 8.9375 C-20.29882474 4.97301233 -19.16341168 3.53841168 -16.375 0.75 C-11.1279831 -2.40040555 -5.61419629 -2.07933196 0 0 Z " fill="#F9F9F9" transform="translate(303.375,54.25)"/>
<path d="M0 0 C13.35341365 -0.49457088 13.35341365 -0.49457088 16.42578125 1.85546875 C18 4 18 4 18.4375 6.5625 C17.92230421 9.43287652 16.99668083 10.00331917 15 12 C15.23198018 15.47970268 17.15681876 18.11502066 19 21 C16.8125 21.4375 16.8125 21.4375 14 21 C12.765625 19.4765625 12.765625 19.4765625 11.5625 17.5625 C9.50373016 14.30598931 9.50373016 14.30598931 5.6875 13.0625 C4.800625 13.041875 3.91375 13.02125 3 13 C3 15.31 3 17.62 3 20 C2.01 20 1.02 20 0 20 C0 13.4 0 6.8 0 0 Z " fill="#EE612B" transform="translate(224,93)"/>
<path d="M0 0 C3.6196875 -0.0928125 3.6196875 -0.0928125 7.3125 -0.1875 C8.44619019 -0.22846802 8.44619019 -0.22846802 9.6027832 -0.27026367 C12.48606887 -0.30617442 14.51149398 -0.32339099 16.953125 1.29296875 C18.75021786 4.223303 18.41528831 6.67769349 18 10 C15.81735287 12.19268229 14.51205282 12.94181218 11.421875 13.29296875 C10.54015625 13.25816406 9.6584375 13.22335938 8.75 13.1875 C7.85796875 13.16042969 6.9659375 13.13335937 6.046875 13.10546875 C5.37140625 13.07066406 4.6959375 13.03585938 4 13 C4 15.64 4 18.28 4 21 C2.68 21 1.36 21 0 21 C0 14.07 0 7.14 0 0 Z " fill="#EF6832" transform="translate(250,93)"/>
<path d="M0 0 C5.28 0 10.56 0 16 0 C16 0.99 16 1.98 16 3 C12.04 3 8.08 3 4 3 C4 4.65 4 6.3 4 8 C7.63 8 11.26 8 15 8 C15 9.32 15 10.64 15 12 C11.37 12 7.74 12 4 12 C4 13.65 4 15.3 4 17 C7.96 17 11.92 17 16 17 C16 18.32 16 19.64 16 21 C10.72 21 5.44 21 0 21 C0 14.07 0 7.14 0 0 Z " fill="#EA6433" transform="translate(199,93)"/>
<path d="M0 0 C4.29 0 8.58 0 13 0 C12.01 1.485 12.01 1.485 11 3 C9.0546875 3.29296875 9.0546875 3.29296875 6.875 3.1875 C5.59625 3.125625 4.3175 3.06375 3 3 C3 5.31 3 7.62 3 10 C5.64 10 8.28 10 11 10 C10.01 11.485 10.01 11.485 9 13 C5.875 13.1875 5.875 13.1875 3 13 C3 15.31 3 17.62 3 20 C2.01 20 1.02 20 0 20 C0 13.4 0 6.8 0 0 Z " fill="#EF5211" transform="translate(224,93)"/>
<path d="M0 0 C3.3 0 6.6 0 10 0 C9.67 0.66 9.34 1.32 9 2 C6.69 2 4.38 2 2 2 C2 4.31 2 6.62 2 9 C6.455 8.505 6.455 8.505 11 8 C11 8.66 11 9.32 11 10 C11.66 10.33 12.32 10.66 13 11 C12 12 12 12 9.49609375 12.09765625 C7.98208984 12.08025391 7.98208984 12.08025391 6.4375 12.0625 C5.42558594 12.05347656 4.41367187 12.04445313 3.37109375 12.03515625 C2.58863281 12.02355469 1.80617187 12.01195313 1 12 C1 13.98 1 15.96 1 18 C0.67 18 0.34 18 0 18 C0 12.06 0 6.12 0 0 Z " fill="#EF5519" transform="translate(252,94)"/>
<path d="M0 0 C5.28 0 10.56 0 16 0 C16 0.99 16 1.98 16 3 C11.71 3 7.42 3 3 3 C3 4.65 3 6.3 3 8 C2.34 8 1.68 8 1 8 C1 11.96 1 15.92 1 20 C0.67 20 0.34 20 0 20 C0 13.4 0 6.8 0 0 Z " fill="#EF4C00" transform="translate(199,93)"/>
<path d="M0 0 C1.47906892 -0.02689216 2.95827483 -0.04634621 4.4375 -0.0625 C5.26121094 -0.07410156 6.08492187 -0.08570312 6.93359375 -0.09765625 C9 0 9 0 10 1 C10.125 3.5 10.125 3.5 10 6 C9 7 9 7 6.93359375 7.09765625 C6.10988281 7.08605469 5.28617188 7.07445313 4.4375 7.0625 C3.61121094 7.05347656 2.78492188 7.04445313 1.93359375 7.03515625 C1.29550781 7.02355469 0.65742188 7.01195313 0 7 C0 4.69 0 2.38 0 0 Z " fill="#FAEBE7" transform="translate(227,96)"/>
<path d="M0 0 C0.33 0 0.66 0 1 0 C1 1.65 1 3.3 1 5 C4.63 5 8.26 5 12 5 C12 6.32 12 7.64 12 9 C8.37 9 4.74 9 1 9 C1 10.65 1 12.3 1 14 C0.67 14 0.34 14 0 14 C0 12.35 0 10.7 0 9 C-0.66 9 -1.32 9 -2 9 C-2 7.68 -2 6.36 -2 5 C-1.34 5 -0.68 5 0 5 C0 3.35 0 1.7 0 0 Z " fill="#EE6B3E" transform="translate(202,96)"/>
<path d="M0 0 C6.0546875 -0.1953125 6.0546875 -0.1953125 8 0 C8.66 0.66 9.32 1.32 10 2 C9.46428571 5.53571429 9.46428571 5.53571429 8 7 C5.32941149 7.14115161 2.67567762 7.04247107 0 7 C0 4.69 0 2.38 0 0 Z " fill="#F9EAE6" transform="translate(254,96)"/>
<path d="M0 0 C3.875 1.875 3.875 1.875 5 3 C5.25 6.4375 5.25 6.4375 5 10 C4.01 10.66 3.02 11.32 2 12 C1.34 11.67 0.68 11.34 0 11 C0.04125 10.071875 0.0825 9.14375 0.125 8.1875 C0.27136339 4.84190281 0.27136339 4.84190281 -2 2 C-1.34 1.34 -0.68 0.68 0 0 Z " fill="#EF5C25" transform="translate(263,93)"/>
<path d="M0 0 C0.99 0.33 1.98 0.66 3 1 C2.071875 2.3303125 2.071875 2.3303125 1.125 3.6875 C-2.15584848 8.80176381 -3.28984907 12.9637171 -4 19 C-4.99 18.34 -5.98 17.68 -7 17 C-6.70368676 10.18479548 -3.69535803 5.61649218 0 0 Z " fill="#DEDEDE" transform="translate(30,48)"/>
<path d="M0 0 C0.66 0 1.32 0 2 0 C2 1.65 2 3.3 2 5 C6.29 5 10.58 5 15 5 C15 5.33 15 5.66 15 6 C10.05 6.33 5.1 6.66 0 7 C0 4.69 0 2.38 0 0 Z " fill="#EF5C26" transform="translate(200,105)"/>
<path d="M0 0 C4.62 0 9.24 0 14 0 C14 0.33 14 0.66 14 1 C10.37 1.33 6.74 1.66 3 2 C2.67 3.65 2.34 5.3 2 7 C1.34 7 0.68 7 0 7 C0 4.69 0 2.38 0 0 Z " fill="#EF571F" transform="translate(200,94)"/>
<path d="M0 0 C0.33 0.66 0.66 1.32 1 2 C1.66 2.33 2.32 2.66 3 3 C2 4 2 4 -0.28515625 4.09765625 C-1.65994141 4.08025391 -1.65994141 4.08025391 -3.0625 4.0625 C-3.98160156 4.05347656 -4.90070313 4.04445313 -5.84765625 4.03515625 C-6.55792969 4.02355469 -7.26820313 4.01195313 -8 4 C-7.67 3.01 -7.34 2.02 -7 1 C-3.535 0.505 -3.535 0.505 0 0 Z " fill="#EF510B" transform="translate(262,102)"/>
<path d="M0 0 C0.99 0.33 1.98 0.66 3 1 C1 4 -1 7 -3 10 C-3.75 8.375 -3.75 8.375 -4 6 C-2.0625 2.75 -2.0625 2.75 0 0 Z " fill="#D8D8D7" transform="translate(30,48)"/>
</svg>
